<svg xmlns="http://www.w3.org/2000/svg" viewBox="0 0 1280 400">
  <defs>
    <linearGradient id="g" x1="0" y1="0" x2="1" y2="1">
      <stop offset="0%" stop-color="#00A3FF"/>
      <stop offset="100%" stop-color="#7A45FF"/>
    </linearGradient>
  </defs>
  <rect width="1280" height="400" fill="#0E1018"/>
  <rect x="20" y="20" width="1240" height="360" rx="12" fill="url(#g)" fill-opacity="0.15" stroke="#243042"/>
  <g transform="translate(120,70)">
    <rect width="1040" height="240" fill="#0E1018" stroke="#2a2f3a" rx="8"/>
    <!-- Grid -->
    <g stroke="#2f3a4a" stroke-width="1">
      <g id="v">
        <path d="M80,0 V240"/>
        <path d="M160,0 V240"/>
        <path d="M240,0 V240"/>
        <path d="M320,0 V240"/>
        <path d="M400,0 V240"/>
        <path d="M480,0 V240"/>
        <path d="M560,0 V240"/>
        <path d="M640,0 V240"/>
        <path d="M720,0 V240"/>
        <path d="M800,0 V240"/>
        <path d="M880,0 V240"/>
        <path d="M960,0 V240"/>
      </g>
      <use href="#v" x="0" y="0"/>
      <path d="M0,40 H1040"/>
      <path d="M0,80 H1040"/>
      <path d="M0,120 H1040"/>
      <path d="M0,160 H1040"/>
      <path d="M0,200 H1040"/>
    </g>
    <!-- Mines -->
    <g fill="#ff6b6b">
      <circle cx="210" cy="60" r="10"/>
      <circle cx="530" cy="180" r="10"/>
      <circle cx="770" cy="100" r="10"/>
    </g>
    <!-- Numbers -->
    <g font-family="Poppins,Segoe UI,Arial" font-weight="700" font-size="28" fill="#d9e1ec">
      <text x="95" y="76">1</text>
      <text x="175" y="156">2</text>
      <text x="255" y="196">3</text>
      <text x="335" y="116">4</text>
      <text x="415" y="196">1</text>
      <text x="615" y="196">2</text>
      <text x="695" y="76">3</text>
      <text x="855" y="156">1</text>
      <text x="935" y="196">2</text>
    </g>
    <!-- Title -->
    <text x="0" y="-16" fill="#9fb3c8" font-family="Poppins,Segoe UI,Arial" font-size="22" font-weight="600">Crypto Sweeper (Minesweeper)</text>
  </g>
</svg>
